<?xml version="1.0" standalone="no"?>
<!DOCTYPE svg PUBLIC "-//W3C//DTD SVG 1.1//EN" "http://www.w3.org/Graphics/SVG/1.1/DTD/svg11.dtd" >
<svg xmlns="http://www.w3.org/2000/svg" xmlns:xlink="http://www.w3.org/1999/xlink" version="1.1">
<metadata>
Created by FontForge 20161013 at Wed Apr 13 12:28:03 2016
 By ,,,
Copyright (c) 2015 by Mohammed Geniwi. All rights reserved.
</metadata>
<defs>
<font id="Blern" horiz-adv-x="449" >
  <font-face 
    font-family="Blern"
    font-weight="400"
    font-stretch="normal"
    units-per-em="1000"
    panose-1="0 0 0 0 0 0 0 0 0 0"
    ascent="750"
    descent="-250"
    x-height="700"
    cap-height="700"
    bbox="0 -1 516 701"
    underline-thickness="50"
    underline-position="-200"
    unicode-range="U+000D-007C"
  />
<missing-glyph horiz-adv-x="500" 
 />
    <glyph glyph-name=".notdef" horiz-adv-x="500" 
 />
    <glyph glyph-name=".null" horiz-adv-x="0" 
 />
    <glyph glyph-name=".null" horiz-adv-x="0" 
 />
    <glyph glyph-name="nonmarkingreturn" horiz-adv-x="333" 
 />
    <glyph glyph-name="CR" unicode="&#xd;" horiz-adv-x="500" 
 />
    <glyph glyph-name="space" unicode=" " horiz-adv-x="300" 
 />
    <glyph glyph-name="exclam" unicode="!" horiz-adv-x="46" 
 />
    <glyph glyph-name="quotedbl" unicode="&#x22;" horiz-adv-x="148" 
d="M46 700v-162h-46v162h46zM148 700v-162h-46v162h46z" />
    <glyph glyph-name="dollar" unicode="$" horiz-adv-x="311" 
d="M311 453h-38v107q0 33 -12 44.5t-44 11.5h-43v-247l99 -73l16 -11l2 -2t3 -2l6 -5q0 -1 1 -2l7 -12q3 -8 3 -18v-131q0 -15 -6 -29q-8 -13 -13 -18q-8 -8 -19 -13q-13 -7 -29 -7h-70v-46h-37v46h-70q-19 0 -29 7q-22 9 -32 31q-6 14 -6 29v107h38v-80q0 -33 12 -44.5
t44 -11.5h43v265l-99 73l-15 11q-2 1 -3 2q-2 1 -3 2h-1q-16 13 -16 37v113q0 15 6 29q8 13 13 18q17 12 19 13q13 7 29 7h70v46h37v-46h70q16 0 29 -7q20 -10 32 -31q6 -13 6 -29v-134zM230 279l-57 42v-238h43q36 0 46 9.5t10 42.5v87v3q0 21 -17 36l-6 4zM136 395v220
h-43q-36 0 -46 -9.5t-10 -42.5v-42v-29q0 -23 17 -37l5 -3l20 -15z" />
    <glyph glyph-name="quotesingle" unicode="'" horiz-adv-x="833" 
 />
    <glyph glyph-name="parenleft" unicode="(" horiz-adv-x="144" 
d="M142 -1h-50q-92 159 -92 350q0 190 91 350h50q-98 -160 -98 -350q0 -191 99 -350z" />
    <glyph glyph-name="parenright" unicode=")" horiz-adv-x="833" 
d="M50 0h-50q99 159 99 350q0 190 -98 350h50q91 -160 91 -350q0 -191 -92 -350z" />
    <glyph glyph-name="period" unicode="." horiz-adv-x="46" 
d="M46 56v-56h-46v56h46z" />
    <glyph glyph-name="slash" unicode="/" horiz-adv-x="240" 
d="M45 0h-45l195 700h45z" />
    <glyph glyph-name="zero" unicode="0" horiz-adv-x="479" 
d="M411 655q8 -18 8 -34v-545q0 -15 -8 -34q-5 -10 -15 -21q-9 -9 -21 -15q-13 -7 -33 -7h-205q-20 0 -34 7q-23 14 -36 36q-7 14 -7 34v545q0 21 7 34q6 12 15 21t21 15q19 8 34 8h205q15 0 33 -8q25 -13 36 -36zM168 42h143q40 0 52 11.5t12 48.5v488q0 38 -13.5 51.5
t-50.5 13.5h-143q-42 0 -53.5 -10.5t-11.5 -49.5v-488q0 -38 14 -51.5t51 -13.5z" />
    <glyph glyph-name="one" unicode="1" horiz-adv-x="266" 
d="M152 44h54v-44h-146v44h48l1 541v10q0 41 -6 51.5t-36 10.5h-7v43h15q27 0 44.5 -8.5t23.5 -23t7.5 -23t1.5 -19.5v-2v-580z" />
    <glyph glyph-name="two" unicode="2" horiz-adv-x="450" 
d="M385 425l-276 -251q-20 -18 -20 -42v-88h53h163h92h8v-44h-73h-5h-204h-5h-29h-44v44v33v78q0 11 4 20q2 5 8 13l2 2l6 6l19 18q19 17 54.5 49t65.5 59l137 125q20 18 20 43v106q0 39 -11.5 49.5t-53.5 10.5h-142q-38 0 -51.5 -13.5t-13.5 -51.5v-53h-44v84q0 16 8 34
q11 22 36 36q18 8 34 8h204q16 0 34 -8q12 -6 21 -15t15 -21q8 -18 8 -34v-139q0 -37 -20 -58z" />
    <glyph glyph-name="three" unicode="3" 
d="M404 622v-219q0 -15 -8 -34q-6 -12 -15 -21v-1q11 -11 15 -21q8 -18 8 -34v-214q0 -16 -8 -34q-10 -22 -36 -36q-18 -8 -33 -8h-205q-15 0 -34 8q-14 8 -21 15q-9 9 -15 21q-7 13 -7 34v93h43v-67q0 -39 11.5 -49.5t53.5 -10.5h143q37 0 50.5 13.5t13.5 51.5v157
q0 35 -10.5 47t-44.5 13l-211 -1v44l208 1q33 1 45.5 14.5t12.5 49.5v162q0 39 -12 49.5t-52 10.5h-143q-37 0 -51 -13.5t-14 -51.5v-54h-43v85q0 21 7 34q10 22 36 36q19 8 34 8h205q15 0 33 -8q12 -6 21 -15q11 -11 15 -21q8 -18 8 -34z" />
    <glyph glyph-name="four" unicode="4" horiz-adv-x="474" 
d="M37 293q10 21 63 105l45 71q12 18 31.5 48.5t34.5 54t27 41.5l44 67q6 9 15 15q13 5 21 5q19 0 31.5 -13t12.5 -31v-415h67v-44h-67v-197h-43v197h-216q-28 1 -46 18q-13 11 -18 26q-6 12 -6 28q0 4 2 18zM306 638l-42 -62q-5 -8 -38 -55.5t-51 -75.5l-48 -73
q-39 -58 -47 -79q-1 -3 -1 -12q0 -15 10 -26.5t25 -13.5h154h51v78v315q0 5 -5.5 7t-7.5 -3z" />
    <glyph glyph-name="five" unicode="5" horiz-adv-x="478" 
d="M410 328q8 -19 8 -34v-227q0 -4 -1 -5v-2q-1 -5 -2 -5q0 -2 -1 -3v-2l-3 -6q-11 -26 -36 -36l-1 -1l-1 -1h-2q-1 -1 -4 -2q-11 -4 -25 -4h-204q-15 0 -26 4l-4 2l-4 2v-2q-12 6 -21 15t-15 21v1l-1 1q0 1 -1 3t-2 4.5t-1 4.5q-3 9 -3 20v102h44v-73v-4q0 -14 1 -17
q4 -23 18 -31.5t45 -8.5h142h11q26 2 37.5 11t15.5 30v19v159q0 34 -10.5 48t-38.5 16h-2h-2h-4h-7h-123v1h-59q-1 0 -16 3l-4 2q-2 0 -4 2q-12 5 -20 14l-1 1q-9 9 -15 21q-3 6 -4 11q-1 1 -1 3q-1 1 -1 3v2q-1 2 -1 3v5v1q-1 0 -1 1v78v5v139v3v1q2 19 8 30q6 12 15 21
t21 15l6 2t5.5 2t3.5 1q9 3 19 3h235v-46h-204h-6q-11 0 -18 -1q-23 -4 -31.5 -16.5t-9.5 -42.5v-4v-159v-4v-2q0 -10 2 -24q6 -24 31 -28h2q1 0 3 -0.5t3 -0.5h7q2 -1 10 -1h7h172q15 0 33 -8q12 -5 21 -14q11 -11 15 -21z" />
    <glyph glyph-name="six" unicode="6" horiz-adv-x="479" 
d="M419 521h-44v70q0 38 -13.5 51.5t-50.5 13.5h-143q-40 0 -52 -10.5t-12 -49.5v-226q18 8 33 8h205q15 0 33 -8q25 -10 36 -36q8 -18 8 -33v-159v-64q0 -16 -8 -34q-5 -12 -14 -21q-10 -10 -22 -15q-18 -8 -33 -8h-205q-15 0 -33 8q-26 14 -36 36q-8 18 -8 34v148v75v321
q0 16 8 34q6 12 15 21t21 15q18 8 33 8h205q15 0 33 -8q25 -14 36 -36q8 -18 8 -34v-101zM311 334h-143q-40 0 -52 -10.5t-12 -48.5v-49v-117q0 -38 13.5 -51.5t50.5 -13.5h143q40 0 52 10.5t12 49.5v38v128q0 38 -13.5 51t-50.5 13z" />
    <glyph glyph-name="seven" unicode="7" horiz-adv-x="411" 
d="M351 622q0 -8 -1 -12q-3 -22 -4 -24q-2 -6 -13 -42.5t-27 -86.5t-31 -97h45v-43h-58q-25 -79 -71 -217q-16 -47 -33 -101h-49l35 103q7 19 21.5 62t27.5 81t25 72h-26h-3h-3q-12 0 -19 -1v44h66l63 187q4 11 6.5 24t3.5 16q0 1 0.5 4.5t1.5 4.5q0 37 -12 48t-52 11h-211
v44h242q15 0 33 -8q12 -6 21 -15t15 -21q7 -13 7 -33z" />
    <glyph glyph-name="eight" unicode="8" horiz-adv-x="419" 
d="M419 179v-103q0 -15 -8 -34q-5 -10 -15 -21q-9 -9 -21 -15v2q-1 -1 -4 -2h-1q-1 -1 -3 -1q-15 -5 -26 -5h-204q-11 0 -26 5l-1 1h-3q-1 1 -4 2q-25 14 -36 36q-7 13 -7 34v101v103q0 15 8 34q4 11 14 21q1 0 1 1h-1q-9 10 -15 21q-7 15 -7 30v4v229q0 21 7 34q6 12 15 21
q7 7 21 15l4 2q2 0 4 1q15 5 26 5h204q11 0 26 -5q2 0 4 -1l4 -2q25 -14 36 -36q8 -18 8 -34v-233q-2 -19 -8 -30t-15 -21h-1l1 -1q7 -7 15 -21q8 -19 8 -34v-103zM168 656h-5q-37 0 -48.5 -12t-11.5 -48v-172q0 -7 1 -8v-3q1 -25 10 -37t30 -15q5 -1 17 -1q2 -1 7 -1h142
q6 0 7 1q16 0 23 1q20 3 27 14t8 38v3v3v172q0 38 -12.5 51t-46.5 14h-6h-142zM375 106v151v1q-1 27 -10 40t-30 16l-18 2h-6h-143h-7l-22 -2q-21 -3 -28 -14.5t-7 -41.5v-2v-147v-4q1 -35 13.5 -47.5t46.5 -12.5h4h143h4q27 0 39 5t17 20q1 0 1 2v1q3 10 3 28v5z" />
    <glyph glyph-name="nine" unicode="9" horiz-adv-x="479" 
d="M60 179h43v-70q0 -38 14 -51.5t51 -13.5h142q42 0 53.5 10.5t11.5 49.5v195q-18 -8 -34 -8h-204q-16 0 -34 8q-25 13 -36 36q-7 13 -7 34v189v64q0 21 7 34q6 12 15 21t21 15q18 8 34 8h204q16 0 34 -8q24 -12 36 -36q8 -18 8 -34v-148v-105v-291q0 -16 -8 -34
q-6 -12 -15 -21t-21 -15q-18 -8 -34 -8h-204q-16 0 -34 8q-25 14 -36 36q-7 13 -7 34v101zM168 335h142q42 0 53.5 10.5t11.5 49.5v79v117q0 38 -13.5 51.5t-51.5 13.5h-142q-42 0 -53.5 -10.5t-11.5 -49.5v-38v-158q0 -38 14 -51.5t51 -13.5z" />
    <glyph glyph-name="colon" unicode=":" horiz-adv-x="45" 
d="M45 334v-56h-45v56h45zM45 56v-56h-45v56h45z" />
    <glyph glyph-name="A" unicode="A" 
d="M396 656q8 -19 8 -34v-622h-44v353l-271 -153h-1v-200h-43v622q0 21 7 34q14 26 36 36q21 8 34 8h205q14 0 33 -8q26 -10 36 -36zM89 246l271 153v154v38q0 39 -13.5 52t-50.5 13h-39h-65h-39q-42 0 -53.5 -12t-11.5 -53v-38v-307h1z" />
    <glyph glyph-name="B" unicode="B" horiz-adv-x="450" 
d="M362 347h-1l-68 -39l65 -46q3 -1 8 -7q39 -31 39 -80v-97q0 -15 -8 -34q-6 -12 -15 -21t-21 -15q-19 -8 -34 -8h-282v700h282q15 0 34 -8q23 -10 36 -36q8 -19 8 -33v-203v-3v-2q-2 -44 -38 -65zM89 44h207q37 0 50 8.5t15 37.5v14v54q0 55 -40 80l-6 4l-43 32l-18 13v-1
l-158 -88l-7 -4v-150zM328 374v1q21 11 27.5 24t5.5 35v158q0 38 -13.5 51t-51.5 13h-207v-416l7 4l121 68l1 1l39 22l27 15l41 23z" />
    <glyph glyph-name="C" unicode="C" 
d="M404 537h-44v53q0 39 -13.5 52t-50.5 13h-143q-41 0 -52.5 -10.5t-11.5 -49.5v-488q0 -38 13.5 -51t50.5 -13h143q41 0 52.5 10.5t11.5 48.5v70h44v-96q0 -20 -7 -33q-6 -12 -15 -21q-11 -11 -22 -15q-19 -8 -33 -8h-205q-14 0 -33 8q-24 11 -37 36q-7 14 -7 33v545
q0 15 7 34q6 12 15 21q11 11 22 15q19 8 33 8h205q14 0 33 -8q24 -11 37 -36q7 -13 7 -34v-84z" />
    <glyph glyph-name="D" unicode="D" 
d="M397 656q7 -13 7 -34v-544q0 -21 -7 -34q-6 -12 -15 -21l-13 -11l-8 -4q-21 -8 -34 -8h-189h1h-50h-44v44v34v544v32v46h282q1 0 15 -2q10 -1 19 -6q2 -1 19 -13q14 -16 17 -23zM89 44h207q42 0 53.5 10.5t11.5 49.5v487q0 32 -9 46t-32 17h-195h-36v-610z" />
    <glyph glyph-name="E" unicode="E" horiz-adv-x="450" 
d="M89 591v-38v-214h266v-44h-266v-148v-38q0 -42 11.5 -53.5t53.5 -11.5h38h213v-44h-282q-15 0 -34 8q-25 10 -36 36q-8 19 -8 34v217v38v289q0 15 8 34q11 26 36 36q19 8 34 8h282v-44h-213h-38q-42 0 -53.5 -11.5t-11.5 -53.5z" />
    <glyph glyph-name="F" unicode="F" horiz-adv-x="415" 
d="M123 700h247v-44h-176h-39q-42 0 -54 -12t-12 -54v-39v-216h230v-45h-230v-290h-44v71v219v39v293q0 15 8 34q11 26 36 36q21 8 34 8z" />
    <glyph glyph-name="G" unicode="G" horiz-adv-x="450" 
d="M360 538v53q1 38 -13 51.5t-51 13.5h-142q-41 0 -53.5 -10.5t-12.5 -48.5l1 -487q0 -38 13.5 -51.5t51.5 -13.5l142 -1q42 0 53.5 10.5t11.5 48.5v127q0 16 -1.5 25t-7 18t-18 13t-32.5 4l-104 1l1 44h129q35 0 56 -26t21 -54v-178q0 -16 -8 -34q-6 -12 -15 -21t-21 -15
q-19 -7 -34 -7h-190q-32 0 -48 10q-25 10 -36 36q-8 18 -8 34v543q0 15 8 34q8 14 15 21q9 9 21 14q18 8 34 8h204q16 0 34 -8q23 -10 36 -36q7 -14 7 -34v-84h-44z" />
    <glyph glyph-name="H" unicode="H" horiz-adv-x="451" 
d="M362 333v367h44v-700h-44v290h-273v-290h-44v290v43v367h44v-367h273z" />
    <glyph glyph-name="I" unicode="I" horiz-adv-x="134" 
d="M89 700v-700h-44v700h44z" />
    <glyph glyph-name="J" unicode="J" horiz-adv-x="344" 
d="M255 700h44v-622q0 -15 -8 -34q-13 -26 -36 -36q-19 -8 -34 -8h-98q-15 0 -34 8q-23 10 -36 36q-8 19 -8 34v95h44v-26v-38q0 -38 13.5 -51.5t51.5 -13.5h39h-42h39q42 0 53.5 11.5t11.5 53.5v38v553z" />
    <glyph glyph-name="K" unicode="K" horiz-adv-x="451" 
d="M406 180v-79v-101h-44v174l-2 16q-7 34 -38 53l-6 5l-44 31l-17 13h-1l-158 -89l-7 -4v-199h-44v700h44v-455l7 4l121 69l1 1l39 22l28 15l40 23l3 2h1q21 11 27.5 24t5.5 35v260h44v-274v-2v-3q-2 -44 -38 -65l-5 -3l-1 -1l-68 -38l65 -47l9 -6q33 -28 38 -71v-10z" />
    <glyph glyph-name="L" unicode="L" horiz-adv-x="410" 
d="M193 44h172v-44h-242q-15 0 -34 8q-24 11 -37 36q-7 13 -7 34v551v71h44v-551v-39q0 -42 11.5 -54t53.5 -12h39z" />
    <glyph glyph-name="M" unicode="M" horiz-adv-x="561" 
d="M488 700h27l1 -700h-44l-1 577v4h-3q-3 0 -3 -2h-1l-154 -339q-9 -19 -29 -19q-21 0 -29 18v1l-156 342v1q-1 1 -3 1h-4v-584h-44v700h28q16 0 25 -16l1 -2l179 -390q0 -2 3 -2t3 2l179 389l1 2q8 17 24 17z" />
    <glyph glyph-name="N" unicode="N" horiz-adv-x="454" 
d="M365 700h44v-700h-29h-4q-15 3 -21 15l-1 2l-255 558v1q-3 3 -5 3t-4 -1h-1v-5v-573h-44v700h27q18 0 25 -15l1 -2l257 -559q1 -3 4 -3h6v579z" />
    <glyph glyph-name="O" unicode="O" horiz-adv-x="450" 
d="M397 656q8 -19 8 -33v-545q0 -15 -8 -34q-6 -12 -15 -21t-21 -15q-19 -8 -34 -8h-204q-15 0 -34 8q-25 10 -36 36q-8 19 -8 34v545q0 14 8 33q6 12 15 21q10 11 21 15q19 8 34 8h204q15 0 34 -8q23 -10 36 -36zM154 44h142q42 0 53.5 10.5t11.5 49.5v487q0 38 -14 51.5
t-51 13.5h-142q-42 0 -53.5 -10.5t-11.5 -48.5v-488q0 -38 13.5 -51.5t51.5 -13.5z" />
    <glyph glyph-name="P" unicode="P" horiz-adv-x="422" 
d="M377 622v-254q0 -47 -31 -70q-14 -9 -30 -9h-53h-173v-289h-45v700h254q14 0 33 -8q24 -11 37 -36q8 -19 8 -34zM90 334h198q10 0 16 1t13.5 5.5t11 16t3.5 30.5v204q0 38 -13.5 51.5t-51.5 13.5h-177v-322z" />
    <glyph glyph-name="Q" unicode="Q" horiz-adv-x="542" 
d="M490 9l7 -9h-52l-1 2l-43 53q-1 -3 -3 -7l-1 -4q-6 -12 -15 -21t-21 -15q-19 -8 -34 -8h-204q-15 0 -34 8q-25 10 -36 36q-8 19 -8 34v545q0 14 8 33q6 12 15 21q10 11 21 15q19 8 34 8h204q15 0 34 -8q23 -10 36 -36q7 -13 7 -33v-507zM361 104v2l-147 185h51l1 -2
l28 -35l67 -83v421q0 38 -14 51t-51 13h-142q-42 0 -53.5 -10.5t-11.5 -48.5v-488q0 -38 13.5 -51.5t51.5 -13.5h142q42 0 53.5 10.5t11.5 49.5z" />
    <glyph glyph-name="R" unicode="R" 
d="M361 347h-1l-68 -38l65 -47l9 -6q38 -31 38 -81v-97v-4v-74h-44v2v99v56v1q0 57 -39 80l-7 5l-43 31l-18 13l-157 -89l-7 -4v-46v-148h-1h-43v700h282q14 0 33 -8q26 -10 36 -36q8 -19 8 -33v-203v-2v-3q-2 -41 -38 -65zM324 373l3 2q21 11 27.5 24t5.5 35v158
q0 38 -13.5 51t-50.5 13h-207v-415l7 4l120 67l1 1v1l39 21l27 15z" />
    <glyph glyph-name="S" unicode="S" horiz-adv-x="450" 
d="M405 540h-44v52q0 38 -13.5 51.5t-51.5 13.5h-142q-42 0 -53.5 -10.5t-11.5 -49.5v-48v-33q0 -26 20 -43l6 -4l23 -17l223 -163l18 -13l6 -5l6 -6l2 -2l8 -13q4 -8 4 -22v-150q0 -15 -8 -34q-6 -12 -15 -21t-21 -15q-19 -8 -34 -8h-204q-15 0 -34 8q-25 14 -36 36
q-8 19 -8 34v97h44v-66q0 -38 13.5 -51.5t51.5 -13.5h142q42 0 53.5 10.5t11.5 49.5v101v2q0 25 -20 42l-7 5l-22 16l-223 163l-17 13l-7 5q-20 18 -20 43v129q0 15 8 34q6 12 15 21t21 15q19 8 34 8h204q15 0 34 -8q24 -12 36 -36q8 -19 8 -34v-83z" />
    <glyph glyph-name="T" unicode="T" horiz-adv-x="505" 
d="M45 700h415v-44h-184v-656h-44v656h-187v44z" />
    <glyph glyph-name="U" unicode="U" 
d="M52 44q-7 13 -7 34v622h43v-553v-38q0 -38 14 -51.5t51 -13.5h39h65h39q42 0 53 11.5t11 53.5v38v553h44v-622q0 -15 -8 -34q-10 -26 -36 -36q-19 -8 -33 -8h-205q-13 0 -34 8q-22 10 -36 36z" />
    <glyph glyph-name="V" unicode="V" horiz-adv-x="518" 
d="M423 700h50l-33 -125l-133 -510l-9 -34q-5 -20 -22 -27q-7 -4 -17 -4t-17 4q-16 6 -21 24q-1 1 -1 4l-9 33l-132 506l-34 129h50l157 -604h1v-1q1 -4 6 -4q6 0 7 4v2z" />
    <glyph glyph-name="W" unicode="W" horiz-adv-x="547" 
d="M71 0h-26v700h41l1 -581v-3h4q3 0 3 1l150 269q11 17 28 17q19 0 28 -17l152 -272q2 -2 3 -2h4l-2 588h45v-700h-27q-16 0 -25 15l-1 2l-173 318q-2 2 -4 2q-1 0 -3 -2l-173 -317l-1 -2l-2 -3q-6 -13 -22 -13z" />
    <glyph glyph-name="X" unicode="X" horiz-adv-x="460" 
d="M367 700h48l-160 -351l160 -349h-50l-135 295l-134 -295h-51l160 349l-160 351h49l136 -297z" />
    <glyph glyph-name="Y" unicode="Y" horiz-adv-x="486" 
d="M235 403l158 297h48l-181 -351v-349h-44v337l-5 12l-181 351h48z" />
    <glyph glyph-name="Z" unicode="Z" 
d="M245 343l-137 -169q-19 -19 -19 -41v-30q0 -33 8.5 -45t35.5 -14h180h84v-44h-274q-9 0 -11 1q-14 2 -23 7q-12 6 -21 15t-15 21q-8 19 -8 33v77q0 13 4 21q2 5 8 13q0 2 2 2q2 3 142 174.5t141 171.5q18 21 18 42v18q0 36 -12 47.5t-52 11.5h-243h-8v45l251 -1h31
q14 0 33 -8q12 -5 21 -15q11 -9 15 -21q8 -19 8 -33v-66q0 -24 -19 -43h-1q-2 0 -139 -170z" />
    <glyph glyph-name="bracketleft" unicode="[" horiz-adv-x="180" 
d="M180 655h-72q-40 0 -52 -10.5t-12 -49.5v-488q0 -38 13.5 -51t50.5 -13h72v-44h-103q-15 0 -33 8q-26 11 -36 36q-8 18 -8 33v545q0 16 8 34q6 12 15 21t21 15q18 8 33 8h103v-44z" />
    <glyph glyph-name="bracketright" unicode="]" horiz-adv-x="179" 
d="M0 44h71q42 0 53.5 10.5t11.5 48.5v488q0 38 -14 51.5t-51 13.5h-71v44h102q15 0 34 -8q22 -10 36 -36q7 -13 7 -34v-545q0 -20 -7 -33q-6 -12 -15 -21q-11 -11 -21 -15q-19 -8 -34 -8h-102v44z" />
    <glyph glyph-name="a.001" unicode="a" 
d="M396 656q8 -19 8 -34v-622h-44v353l-271 -153h-1v-200h-43v622q0 21 7 34q14 26 36 36q21 8 34 8h205q14 0 33 -8q26 -10 36 -36zM89 246l271 153v154v38q0 39 -13.5 52t-50.5 13h-39h-65h-39q-42 0 -53.5 -12t-11.5 -53v-38v-307h1z" />
    <glyph glyph-name="b" unicode="b" horiz-adv-x="450" 
d="M362 347h-1l-68 -39l65 -46q3 -1 8 -7q39 -31 39 -80v-97q0 -15 -8 -34q-6 -12 -15 -21t-21 -15q-19 -8 -34 -8h-282v700h282q15 0 34 -8q23 -10 36 -36q8 -19 8 -33v-203v-3v-2q-2 -44 -38 -65zM89 44h207q37 0 50 8.5t15 37.5v14v54q0 55 -40 80l-6 4l-43 32l-18 13v-1
l-158 -88l-7 -4v-150zM328 374v1q21 11 27.5 24t5.5 35v158q0 38 -13.5 51t-51.5 13h-207v-416l7 4l121 68l1 1l39 22l27 15l41 23z" />
    <glyph glyph-name="c" unicode="c" 
d="M404 537h-44v53q0 39 -13.5 52t-50.5 13h-143q-41 0 -52.5 -10.5t-11.5 -49.5v-488q0 -38 13.5 -51t50.5 -13h143q41 0 52.5 10.5t11.5 48.5v70h44v-96q0 -20 -7 -33q-6 -12 -15 -21q-11 -11 -22 -15q-19 -8 -33 -8h-205q-14 0 -33 8q-24 11 -37 36q-7 14 -7 33v545
q0 15 7 34q6 12 15 21q11 11 22 15q19 8 33 8h205q14 0 33 -8q24 -11 37 -36q7 -13 7 -34v-84z" />
    <glyph glyph-name="d" unicode="d" 
d="M397 656q7 -13 7 -34v-544q0 -21 -7 -34q-6 -12 -15 -21l-13 -11l-8 -4q-21 -8 -34 -8h-189h1h-50h-44v44v34v544v32v46h282q1 0 15 -2q10 -1 19 -6q2 -1 19 -13q14 -16 17 -23zM89 44h207q42 0 53.5 10.5t11.5 49.5v487q0 32 -9 46t-32 17h-195h-36v-610z" />
    <glyph glyph-name="e" unicode="e" horiz-adv-x="450" 
d="M89 591v-38v-214h266v-44h-266v-148v-38q0 -42 11.5 -53.5t53.5 -11.5h38h213v-44h-282q-15 0 -34 8q-25 10 -36 36q-8 19 -8 34v217v38v289q0 15 8 34q11 26 36 36q19 8 34 8h282v-44h-213h-38q-42 0 -53.5 -11.5t-11.5 -53.5z" />
    <glyph glyph-name="f" unicode="f" horiz-adv-x="415" 
d="M123 700h247v-44h-176h-39q-42 0 -54 -12t-12 -54v-39v-216h230v-45h-230v-290h-44v71v219v39v293q0 15 8 34q11 26 36 36q21 8 34 8z" />
    <glyph glyph-name="g" unicode="g" horiz-adv-x="450" 
d="M404 538h-44v53q1 38 -13 51.5t-51 13.5h-142q-41 0 -53.5 -10.5t-12.5 -48.5l1 -487q0 -38 13.5 -51.5t51.5 -13.5l142 -1q42 0 53.5 10.5t11.5 48.5v127q0 16 -1.5 25t-7 18t-18 13t-32.5 4l-104 1l1 44h129q35 0 56 -26t21 -54v-178q0 -16 -8 -34q-6 -12 -15 -21
t-21 -15q-19 -7 -34 -7h-190q-32 0 -48 10q-25 10 -36 36q-8 18 -8 34v543q0 15 8 34q8 14 15 21q9 9 21 14q18 8 34 8h204q16 0 34 -8q23 -10 36 -36q7 -14 7 -34v-84z" />
    <glyph glyph-name="h" unicode="h" horiz-adv-x="451" 
d="M362 333v367h44v-700h-44v290h-273v-290h-44v290v43v367h44v-367h273z" />
    <glyph glyph-name="i" unicode="i" horiz-adv-x="134" 
d="M89 700v-700h-44v700h44z" />
    <glyph glyph-name="j" unicode="j" horiz-adv-x="344" 
d="M255 700h44v-622q0 -15 -8 -34q-13 -26 -36 -36q-19 -8 -34 -8h-98q-15 0 -34 8q-23 10 -36 36q-8 19 -8 34v95h44v-26v-38q0 -38 13.5 -51.5t51.5 -13.5h39h-42h39q42 0 53.5 11.5t11.5 53.5v38v553z" />
    <glyph glyph-name="k" unicode="k" horiz-adv-x="451" 
d="M406 180v-79v-101h-44v174l-2 16q-7 34 -38 53l-6 5l-44 31l-17 13h-1l-158 -89l-7 -4v-199h-44v700h44v-455l7 4l121 69l1 1l39 22l28 15l40 23l3 2h1q21 11 27.5 24t5.5 35v260h44v-274v-2v-3q-2 -44 -38 -65l-5 -3l-1 -1l-68 -38l65 -47l9 -6q33 -28 38 -71v-10z" />
    <glyph glyph-name="l" unicode="l" horiz-adv-x="410" 
d="M193 44h172v-44h-242q-15 0 -34 8q-24 11 -37 36q-7 13 -7 34v551v71h44v-551v-39q0 -42 11.5 -54t53.5 -12h39z" />
    <glyph glyph-name="m" unicode="m" horiz-adv-x="561" 
d="M488 700h27l1 -700h-44l-1 577v4h-3q-3 0 -3 -2h-1l-154 -339q-9 -19 -29 -19q-21 0 -29 18v1l-156 342v1q-1 1 -3 1h-4v-584h-44v700h28q16 0 25 -16l1 -2l179 -390q0 -2 3 -2t3 2l179 389l1 2q8 17 24 17z" />
    <glyph glyph-name="n" unicode="n" horiz-adv-x="454" 
d="M365 700h44v-700h-29h-4q-15 3 -21 15l-1 2l-255 558v1q-3 3 -5 3t-4 -1h-1v-5v-573h-44v700h27q18 0 25 -15l1 -2l257 -559q1 -3 4 -3h6v579z" />
    <glyph glyph-name="o" unicode="o" horiz-adv-x="450" 
d="M397 656q8 -19 8 -33v-545q0 -15 -8 -34q-6 -12 -15 -21t-21 -15q-19 -8 -34 -8h-204q-15 0 -34 8q-25 10 -36 36q-8 19 -8 34v545q0 14 8 33q6 12 15 21q10 11 21 15q19 8 34 8h204q15 0 34 -8q23 -10 36 -36zM154 44h142q42 0 53.5 10.5t11.5 49.5v487q0 38 -14 51.5
t-51 13.5h-142q-42 0 -53.5 -10.5t-11.5 -48.5v-488q0 -38 13.5 -51.5t51.5 -13.5z" />
    <glyph glyph-name="p" unicode="p" horiz-adv-x="422" 
d="M377 622v-254q0 -47 -31 -70q-14 -9 -30 -9h-53h-173v-289h-45v700h254q14 0 33 -8q24 -11 37 -36q8 -19 8 -34zM90 334h198q10 0 16 1t13.5 5.5t11 16t3.5 30.5v204q0 38 -13.5 51.5t-51.5 13.5h-177v-322z" />
    <glyph glyph-name="q" unicode="q" horiz-adv-x="542" 
d="M490 9l7 -9h-52l-1 2l-43 53q-1 -3 -3 -7l-1 -4q-6 -12 -15 -21t-21 -15q-19 -8 -34 -8h-204q-15 0 -34 8q-25 10 -36 36q-8 19 -8 34v545q0 14 8 33q6 12 15 21q10 11 21 15q19 8 34 8h204q15 0 34 -8q23 -10 36 -36q7 -13 7 -33v-507zM361 104v2l-147 185h51l1 -2
l28 -35l67 -83v421q0 38 -14 51t-51 13h-142q-42 0 -53.5 -10.5t-11.5 -48.5v-488q0 -38 13.5 -51.5t51.5 -13.5h142q42 0 53.5 10.5t11.5 49.5z" />
    <glyph glyph-name="r" unicode="r" 
d="M361 347h-1l-68 -38l65 -47l9 -6q38 -31 38 -81v-97v-4v-74h-44v2v99v56v1q0 57 -39 80l-7 5l-43 31l-18 13l-157 -89l-7 -4v-46v-148h-1h-43v700h282q14 0 33 -8q26 -10 36 -36q8 -19 8 -33v-203v-2v-3q-2 -41 -38 -65zM324 373l3 2q21 11 27.5 24t5.5 35v158
q0 38 -13.5 51t-50.5 13h-207v-415l7 4l120 67l1 1v1l39 21l27 15z" />
    <glyph glyph-name="s" unicode="s" horiz-adv-x="450" 
d="M405 540h-44v52q0 38 -13.5 51.5t-51.5 13.5h-142q-42 0 -53.5 -10.5t-11.5 -49.5v-48v-33q0 -26 20 -43l6 -4l23 -17l223 -163l18 -13l6 -5l6 -6l2 -2l8 -13q4 -8 4 -22v-150q0 -15 -8 -34q-6 -12 -15 -21t-21 -15q-19 -8 -34 -8h-204q-15 0 -34 8q-25 14 -36 36
q-8 19 -8 34v97h44v-66q0 -38 13.5 -51.5t51.5 -13.5h142q42 0 53.5 10.5t11.5 49.5v101v2q0 25 -20 42l-7 5l-22 16l-223 163l-17 13l-7 5q-20 18 -20 43v129q0 15 8 34q6 12 15 21t21 15q19 8 34 8h204q15 0 34 -8q24 -12 36 -36q8 -19 8 -34v-83z" />
    <glyph glyph-name="t" unicode="t" horiz-adv-x="505" 
d="M45 700h415v-44h-184v-656h-44v656h-187v44z" />
    <glyph glyph-name="u" unicode="u" 
d="M52 44q-7 13 -7 34v622h43v-553v-38q0 -38 14 -51.5t51 -13.5h39h65h39q42 0 53 11.5t11 53.5v38v553h44v-622q0 -15 -8 -34q-10 -26 -36 -36q-19 -8 -33 -8h-205q-13 0 -34 8q-22 10 -36 36z" />
    <glyph glyph-name="v" unicode="v" horiz-adv-x="518" 
d="M423 700h50l-33 -125l-133 -510l-9 -34q-5 -20 -22 -27q-7 -4 -17 -4t-17 4q-16 6 -21 24q-1 1 -1 4l-9 33l-132 506l-34 129h50l157 -604h1v-1q1 -4 6 -4q6 0 7 4v2z" />
    <glyph glyph-name="w" unicode="w" horiz-adv-x="547" 
d="M71 0h-26v700h41l1 -581v-3h4q3 0 3 1l150 269q11 17 28 17q19 0 28 -17l152 -272q2 -2 3 -2h4l-2 588h45v-700h-27q-16 0 -25 15l-1 2l-173 318q-2 2 -4 2q-1 0 -3 -2l-173 -317l-1 -2l-2 -3q-6 -13 -22 -13z" />
    <glyph glyph-name="x" unicode="x" horiz-adv-x="460" 
d="M367 700h48l-160 -351l160 -349h-50l-135 295l-134 -295h-51l160 349l-160 351h49l136 -297z" />
    <glyph glyph-name="y" unicode="y" horiz-adv-x="501" 
d="M250 403l158 297h48l-181 -351v-349h-44v337l-5 12l-181 351h48z" />
    <glyph glyph-name="z" unicode="z" horiz-adv-x="404" 
d="M200 343l-137 -169q-19 -19 -19 -41v-30q0 -33 8.5 -45t35.5 -14h180h84v-44h-274q-9 0 -11 1q-14 2 -23 7q-12 6 -21 15t-15 21q-8 19 -8 33v77q0 13 4 21q2 5 8 13q0 2 2 2q2 3 142 174.5t141 171.5q18 21 18 42v18q0 36 -12 47.5t-52 11.5h-243h-8v45l251 -1h31
q14 0 33 -8q12 -5 21 -15q10 -9 15 -21q8 -19 8 -33v-66q0 -24 -19 -43h-1q-2 0 -139 -170z" />
    <glyph glyph-name="bar" unicode="|" horiz-adv-x="44" 
d="M44 700v-700h-44v700h44z" />
    <glyph glyph-name="seven.001" horiz-adv-x="833" 
 />
    </font>
</defs>
</svg>
